<svg xmlns="http://www.w3.org/2000/svg" width="512" height="512" viewBox="0 0 512 512">
  <defs>
    <linearGradient id="face" x1="0" y1="0" x2="1" y2="1">
      <stop offset="0" stop-color="#ffffff"/>
      <stop offset="1" stop-color="#B9C6C0"/>
    </linearGradient>
    <linearGradient id="road" x1="0" y1="1" x2="0" y2="0">
      <stop offset="0" stop-color="#EEF2F0"/>
      <stop offset="1" stop-color="#FFFFFF"/>
    </linearGradient>
  </defs>
  <!-- app tile -->
  <rect width="512" height="512" rx="116" fill="#0A0A0A"/>
  <!-- peak-A: right face (deep green) then left face (silver), split by the centre ridge -->
  <path d="M256 96 L392 416 H300 L256 300 Z" fill="#12583C"/>
  <path d="M256 96 L120 416 H212 L256 300 Z" fill="url(#face)"/>
  <!-- road sweeping up through the A, tapering to the peak, with a dashed centre line -->
  <path d="M150 416 Q206 250 250 120 L276 120 Q232 255 214 416 Z" fill="url(#road)"/>
  <g fill="#12583C">
    <path d="M243 150 l14 0 -4 26 -12 0 Z"/>
    <path d="M232 208 l16 0 -5 30 -14 0 Z"/>
    <path d="M219 274 l18 0 -6 34 -16 0 Z"/>
    <path d="M205 348 l20 0 -7 40 -18 0 Z"/>
  </g>
</svg>
